<?xml version="1.0" encoding="UTF-8" standalone="no"?>
<!DOCTYPE svg PUBLIC "-//W3C//DTD SVG 1.1//EN" "http://www.w3.org/Graphics/SVG/1.1/DTD/svg11.dtd">
<svg width="100%" height="100%" viewBox="0 0 800 800" version="1.1" xmlns="http://www.w3.org/2000/svg" xmlns:xlink="http://www.w3.org/1999/xlink" xml:space="preserve" xmlns:serif="http://www.serif.com/" style="fill-rule:evenodd;clip-rule:evenodd;stroke-linejoin:round;stroke-miterlimit:2;">
    <g id="layer1" transform="matrix(94.4882,0,0,94.4882,0,-27263)">
        <path id="path929" d="M4.232,288.797C2.628,288.797 1.322,290.103 1.322,291.707C1.322,294.53 4.068,296.676 4.068,296.676C4.165,296.753 4.302,296.753 4.398,296.676C4.398,296.676 7.145,294.53 7.145,291.707C7.145,290.103 5.837,288.797 4.232,288.797ZM4.232,289.326C5.551,289.326 6.615,290.389 6.615,291.707C6.615,294.016 4.524,295.841 4.234,296.088C3.946,295.842 1.852,294.017 1.852,291.707C1.852,290.389 2.914,289.326 4.232,289.326Z" style="fill:rgb(251,111,146);fill-rule:nonzero;stroke:rgb(251,111,146);stroke-width:0.01px;"/>
        <path id="circle931" d="M4.232,290.385C3.505,290.385 2.91,290.98 2.91,291.707C2.91,292.435 3.505,293.031 4.232,293.031C4.96,293.031 5.557,292.435 5.557,291.707C5.557,290.98 4.96,290.385 4.232,290.385ZM4.232,290.914C4.674,290.914 5.027,291.266 5.027,291.707C5.027,292.149 4.674,292.502 4.232,292.502C3.791,292.502 3.439,292.149 3.439,291.707C3.439,291.266 3.791,290.914 4.232,290.914Z" style="fill:rgb(251,111,146);fill-rule:nonzero;stroke:rgb(251,111,146);stroke-width:0.01px;"/>
    </g>
</svg>
