<?xml version="1.0" encoding="UTF-8" standalone="no"?>
<!DOCTYPE svg PUBLIC "-//W3C//DTD SVG 1.1//EN" "http://www.w3.org/Graphics/SVG/1.1/DTD/svg11.dtd">
<svg width="100%" height="100%" viewBox="0 0 800 800" version="1.1" xmlns="http://www.w3.org/2000/svg" xmlns:xlink="http://www.w3.org/1999/xlink" xml:space="preserve" xmlns:serif="http://www.serif.com/" style="fill-rule:evenodd;clip-rule:evenodd;stroke-linejoin:round;stroke-miterlimit:2;">
    <g transform="matrix(14.2857,0,0,14.2857,5.07531e-14,5.07531e-14)">
        <path d="M33.703,50.602C45.896,50.602 56,40.498 56,28.306C56,16.136 45.874,6.009 33.681,6.009C22.454,6.009 12.956,14.654 11.609,25.544C18.592,25.656 24.452,30.776 25.665,37.467C28.045,36.456 30.807,35.873 33.703,35.873C39.227,35.873 44.099,37.938 47.063,41.127C43.695,44.607 38.958,46.808 33.681,46.808C30.582,46.808 27.663,46.022 25.103,44.697C24.699,45.887 24.16,47.01 23.419,48.065C26.541,49.682 30.021,50.602 33.703,50.602ZM33.681,32.1C29.392,32.1 26.136,28.351 26.136,23.68C26.136,19.257 29.459,15.417 33.681,15.417C37.925,15.417 41.27,19.257 41.248,23.68C41.248,28.351 37.992,32.1 33.681,32.1ZM11.407,51.456C17.671,51.456 22.813,46.336 22.813,40.049C22.813,33.807 17.671,28.642 11.407,28.642C5.164,28.642 0,33.807 0,40.049C0,46.336 5.164,51.456 11.407,51.456ZM11.407,41.845C10.666,41.845 10.127,41.351 10.104,40.61L9.925,34.413C9.902,33.537 10.508,32.931 11.407,32.931C12.327,32.931 12.911,33.537 12.889,34.413L12.709,40.61C12.687,41.351 12.17,41.845 11.407,41.845ZM11.407,47.212C10.396,47.212 9.565,46.381 9.565,45.371C9.565,44.36 10.396,43.529 11.407,43.529C12.44,43.529 13.248,44.36 13.248,45.371C13.248,46.381 12.44,47.212 11.407,47.212Z" style="fill:rgb(251,111,146);fill-rule:nonzero;stroke:rgb(251,111,146);stroke-width:0.07px;"/>
    </g>
</svg>
