<?xml version="1.0" encoding="UTF-8" standalone="no"?>
<!DOCTYPE svg PUBLIC "-//W3C//DTD SVG 1.1//EN" "http://www.w3.org/Graphics/SVG/1.1/DTD/svg11.dtd">
<svg width="100%" height="100%" viewBox="0 0 800 800" version="1.1" xmlns="http://www.w3.org/2000/svg" xmlns:xlink="http://www.w3.org/1999/xlink" xml:space="preserve" xmlns:serif="http://www.serif.com/" style="fill-rule:evenodd;clip-rule:evenodd;stroke-linecap:round;stroke-linejoin:round;">
    <g id="Interface---Shopping_Cart_01" serif:id="Interface / Shopping_Cart_01" transform="matrix(33.3333,0,0,33.3333,0,0)">
        <path id="Vector" d="M17,17C15.895,17 15,17.895 15,19C15,20.105 15.895,21 17,21C18.105,21 19,20.105 19,19C19,17.895 18.105,17 17,17ZM17,17L9.294,17C8.833,17 8.602,17 8.412,16.918C8.245,16.846 8.099,16.729 7.994,16.581C7.875,16.414 7.827,16.191 7.733,15.751L5.271,4.265C5.175,3.814 5.126,3.588 5.006,3.42C4.9,3.271 4.755,3.154 4.587,3.082C4.397,3 4.168,3 3.707,3L3,3M6,6L18.873,6C19.595,6 19.956,6 20.198,6.15C20.41,6.282 20.565,6.489 20.633,6.729C20.71,7.003 20.611,7.35 20.411,8.043L19.026,12.844C18.907,13.258 18.847,13.465 18.726,13.619C18.619,13.755 18.477,13.861 18.317,13.926C18.136,14 17.921,14 17.492,14L7.73,14M8,21C6.895,21 6,20.105 6,19C6,17.895 6.895,17 8,17C9.105,17 10,17.895 10,19C10,20.105 9.105,21 8,21Z" style="fill:none;fill-rule:nonzero;stroke:rgb(131,56,236);stroke-width:2px;"/>
    </g>
</svg>
