<?xml version="1.0" encoding="UTF-8" standalone="no"?>
<!DOCTYPE svg PUBLIC "-//W3C//DTD SVG 1.1//EN" "http://www.w3.org/Graphics/SVG/1.1/DTD/svg11.dtd">
<svg width="100%" height="100%" viewBox="0 0 800 800" version="1.1" xmlns="http://www.w3.org/2000/svg" xmlns:xlink="http://www.w3.org/1999/xlink" xml:space="preserve" xmlns:serif="http://www.serif.com/" style="fill-rule:evenodd;clip-rule:evenodd;stroke-linejoin:round;stroke-miterlimit:2;">
    <g transform="matrix(16,0,0,16,0,0)">
        <path d="M7.813,8C7.336,8.09 6.992,8.512 7,9L7,13C7,13.551 7.449,14 8,14L8.188,14L11.125,29.75C11.105,29.957 11.148,30.164 11.25,30.344L12.594,37.531C12.586,37.691 12.617,37.855 12.688,38L13.406,41.875L13.406,41.906C13.898,44.234 15.922,46 18.313,46L31.688,46C34.07,46 36.203,44.262 36.594,41.875L36.594,41.844L37.313,38L37.313,37.969L37.344,37.906C37.391,37.777 37.414,37.637 37.406,37.5L38.75,30.375C38.867,30.176 38.91,29.945 38.875,29.719L41.813,14L42,14C42.551,14 43,13.551 43,13L43,9C43,8.449 42.551,8 42,8L7.813,8ZM9,10L41,10L41,12L32.219,12C32.117,11.973 32.012,11.961 31.906,11.969C31.875,11.977 31.844,11.988 31.813,12L21.219,12C21.117,11.973 21.012,11.961 20.906,11.969C20.875,11.977 20.844,11.988 20.813,12L9,12L9,10ZM12.438,14L15.563,14L14,15.563L12.438,14ZM18.438,14L20.563,14L23.563,17L19.5,21.094L15.438,17L18.438,14ZM23.438,14L26.563,14L25,15.563L23.438,14ZM29.438,14L31.563,14L34.563,17L30.5,21.063L26.438,17L29.438,14ZM34.438,14L37.563,14L36,15.563L34.438,14ZM10.344,14.781L12.563,17L11.063,18.531L10.344,14.781ZM39.656,14.781L38.969,18.531L37.438,17L39.656,14.781ZM14,18.438L18.094,22.5L14,26.594L12.406,25C12.359,24.953 12.305,24.91 12.25,24.875L11.5,20.906L14,18.438ZM25,18.438L29.094,22.5L25,26.594L20.906,22.5L25,18.438ZM36,18.438L38.5,20.906L37.781,24.844C37.711,24.887 37.648,24.941 37.594,25L36,26.594L31.906,22.5L36,18.438ZM19.5,23.906L23.594,28L19.5,32.094L15.406,28L19.5,23.906ZM30.5,23.906L34.594,28L30.5,32.094L26.406,28L30.5,23.906ZM14,29.406L18.094,33.5L14.531,37.063L13.25,30.156L14,29.406ZM25,29.406L29.094,33.5L25,37.594L20.906,33.5L25,29.406ZM36,29.406L36.781,30.188L35.469,37.063L31.906,33.5L36,29.406ZM19.5,34.906L23.594,39L20,42.594L15.906,38.5L19.5,34.906ZM30.5,34.906L34.094,38.5L30,42.594L26.406,39L30.5,34.906ZM25,40.406L28.594,44L21.406,44L25,40.406ZM15.219,40.625L18.594,44L18.313,44C16.902,44 15.684,42.973 15.375,41.5L15.219,40.625ZM34.781,40.625L34.625,41.5L34.625,41.531C34.402,42.93 33.098,44 31.688,44L31.406,44L34.781,40.625Z" style="fill:rgb(251,111,146);fill-rule:nonzero;stroke:rgb(251,111,146);stroke-width:0.06px;"/>
    </g>
</svg>
