<?xml version="1.0" encoding="UTF-8" standalone="no"?>
<!DOCTYPE svg PUBLIC "-//W3C//DTD SVG 1.1//EN" "http://www.w3.org/Graphics/SVG/1.1/DTD/svg11.dtd">
<svg width="100%" height="100%" viewBox="0 0 800 800" version="1.1" xmlns="http://www.w3.org/2000/svg" xmlns:xlink="http://www.w3.org/1999/xlink" xml:space="preserve" xmlns:serif="http://www.serif.com/" style="fill-rule:evenodd;clip-rule:evenodd;stroke-linejoin:round;stroke-miterlimit:2;">
    <g transform="matrix(33.3333,0,0,33.3333,0,0)">
        <path d="M20,1C21.657,1 23,2.343 23,4L23,20C23,21.657 21.657,23 20,23L4,23C2.343,23 1,21.657 1,20L1,4C1,2.343 2.343,1 4,1L20,1ZM20,3C20.552,3 21,3.448 21,4L21,20C21,20.552 20.552,21 20,21L15,21L15,14L17.076,14C17.507,14 17.889,13.725 18.025,13.316L18.468,11.987C18.63,11.501 18.268,11 17.756,11L15,11L15,9C15,8.5 15.5,8 16,8L18,8C18.552,8 19,7.552 19,7L19,6.314C19,5.991 18.794,5.701 18.481,5.619C17.171,5.273 16,5.273 16,5.273C13.5,5.273 12,7 12,8.5L12,11L10,11C9.448,11 9,11.448 9,12L9,13C9,13.552 9.448,14 10,14L12,14L12,21L4,21C3.448,21 3,20.552 3,20L3,4C3,3.448 3.448,3 4,3L20,3Z" style="fill:rgb(251,111,146);stroke:rgb(251,111,146);stroke-width:0.03px;"/>
    </g>
</svg>
