<?xml version="1.0" encoding="UTF-8" standalone="no"?>
<!DOCTYPE svg PUBLIC "-//W3C//DTD SVG 1.1//EN" "http://www.w3.org/Graphics/SVG/1.1/DTD/svg11.dtd">
<svg width="100%" height="100%" viewBox="0 0 800 800" version="1.1" xmlns="http://www.w3.org/2000/svg" xmlns:xlink="http://www.w3.org/1999/xlink" xml:space="preserve" xmlns:serif="http://www.serif.com/" style="fill-rule:evenodd;clip-rule:evenodd;stroke-linejoin:round;stroke-miterlimit:2;">
    <g transform="matrix(14.2857,0,0,14.2857,5.07531e-14,5.07531e-14)">
        <path d="M28.012,27.367C33.051,27.367 37.387,22.867 37.387,17.008C37.387,11.219 33.027,6.93 28.012,6.93C22.996,6.93 18.637,11.313 18.637,17.055C18.637,22.867 22.996,27.367 28.012,27.367ZM13.293,49.07L42.731,49.07C46.41,49.07 47.723,48.016 47.723,45.953C47.723,39.906 40.152,31.563 28.012,31.563C15.848,31.563 8.277,39.906 8.277,45.953C8.277,48.016 9.59,49.07 13.293,49.07Z" style="fill:rgb(131,56,236);fill-rule:nonzero;stroke:rgb(131,56,236);stroke-width:0.07px;"/>
    </g>
</svg>
