<?xml version="1.0" encoding="UTF-8" standalone="no"?>
<!DOCTYPE svg PUBLIC "-//W3C//DTD SVG 1.1//EN" "http://www.w3.org/Graphics/SVG/1.1/DTD/svg11.dtd">
<svg width="100%" height="100%" viewBox="0 0 1080 900" version="1.1" xmlns="http://www.w3.org/2000/svg" xmlns:xlink="http://www.w3.org/1999/xlink" xml:space="preserve" xmlns:serif="http://www.serif.com/" style="fill-rule:evenodd;clip-rule:evenodd;stroke-miterlimit:1;">
    <g id="Artboard1" transform="matrix(0.75,0,0,1,0,0)">
        <rect x="0" y="0" width="1440" height="900" style="fill:none;"/>
        <g transform="matrix(1.11401,0,0,0.866904,-1523.02,-229.571)">
            <g transform="matrix(86.1303,0,0,86.1303,1916.78,1000)">
            </g>
            <text x="1400px" y="1000px" style="font-family:'PressStart2P-Regular', 'Press Start 2P';font-size:86.13px;fill:rgb(251,111,146);">Gaming</text>
        </g>
        <g transform="matrix(1.11401,0,0,0.866904,-1018.28,-539.571)">
            <g transform="matrix(86.1303,0,0,86.1303,2175.17,1000)">
            </g>
            <text x="1400px" y="1000px" style="font-family:'PressStart2P-Regular', 'Press Start 2P';font-size:86.13px;fill:rgb(251,111,146);">ecnoCompu</text>
        </g>
        <g transform="matrix(1.1583,0,0,1.1583,-36.3144,-91.3479)">
            <g transform="matrix(1.02564,0,0,0.78637,328.514,661.035)">
                <path d="M50.3,87.7C49.2,87.7 48.1,87.4 47.2,86.7L37.1,79.7C36.3,79.2 35.3,79.1 34.5,79.6L25.7,84.8C24,85.8 22,85.8 20.2,84.8C18.5,83.8 17.5,82.1 17.5,80.1L17.5,43.9C17.5,26 32.1,11.4 50,11.4C67.9,11.4 82.5,26 82.5,43.9L82.5,80.3C82.5,82.3 81.5,84 79.8,85C78.1,86 76.1,86 74.4,85L65.5,79.8C64.7,79.3 63.6,79.4 62.8,79.9L53.5,86.7C52.5,87.4 51.4,87.7 50.3,87.7ZM35.7,76.4C36.8,76.4 37.9,76.7 38.8,77.4L48.9,84.4C49.8,85 50.9,85 51.7,84.4L61,77.6C62.7,76.3 65.1,76.2 67,77.3L75.9,82.5C76.7,82.9 77.6,82.9 78.3,82.5C79.1,82.1 79.5,81.3 79.5,80.4L79.5,43.9C79.5,27.6 66.3,14.4 50,14.4C33.7,14.4 20.5,27.6 20.5,43.9L20.5,80.3C20.5,81.2 21,82 21.7,82.4C22.5,82.8 23.4,82.8 24.1,82.4L32.9,77.2C33.8,76.6 34.7,76.4 35.7,76.4ZM35.9,54.1C31,54.1 27.1,50.1 27.1,45.3C27.1,40.4 31.1,36.5 35.9,36.5C40.7,36.5 44.7,40.5 44.7,45.3C44.7,50.1 40.7,54.1 35.9,54.1ZM35.9,39.5C32.7,39.5 30.1,42.1 30.1,45.3C30.1,48.5 32.7,51.1 35.9,51.1C39.1,51.1 41.7,48.5 41.7,45.3C41.7,42.1 39.1,39.5 35.9,39.5ZM64.3,54.1C59.4,54.1 55.5,50.1 55.5,45.3C55.5,40.4 59.5,36.5 64.3,36.5C69.1,36.5 73.1,40.5 73.1,45.3C73.1,50.1 69.2,54.1 64.3,54.1ZM64.3,39.5C61.1,39.5 58.5,42.1 58.5,45.3C58.5,48.5 61.1,51.1 64.3,51.1C67.5,51.1 70.1,48.5 70.1,45.3C70.1,42.1 67.5,39.5 64.3,39.5ZM32.4,30.6C32.5,30.5 38.2,23.4 46.2,22.9C47,22.9 47.7,22.1 47.6,21.3C47.6,20.5 46.9,19.9 46,19.9C36.7,20.4 30.3,28.4 30,28.7C29.5,29.3 29.6,30.3 30.2,30.8C30.5,31 30.8,31.1 31.1,31.1C31.7,31.1 32.1,30.9 32.4,30.6Z" style="fill:rgb(131,56,236);fill-rule:nonzero;stroke:rgb(251,111,146);stroke-width:1.11px;"/>
            </g>
            <g transform="matrix(0.118853,0,0,0.0874996,145.617,540.303)">
                <g transform="matrix(14.8217,0,0,14.8217,-0.236518,1424.95)">
                    <path d="M39.481,25.987C38.929,25.987 38.481,26.435 38.481,26.987C38.481,27.539 38.929,27.987 39.481,27.987L42.481,27.987C43.033,27.987 43.481,27.539 43.481,26.987C43.481,26.435 43.033,25.987 42.481,25.987L39.481,25.987Z" style="fill:rgb(131,56,236);fill-rule:nonzero;stroke:rgb(131,56,236);stroke-width:0.15px;stroke-linejoin:round;stroke-miterlimit:2;"/>
                </g>
                <g transform="matrix(14.8217,0,0,14.8217,-0.274962,1424.95)">
                    <path d="M52.481,25.987L50.481,25.987C49.929,25.987 49.481,26.435 49.481,26.987C49.481,27.539 49.929,27.987 50.481,27.987L52.481,27.987C53.033,27.987 53.481,27.539 53.481,26.987C53.481,26.435 53.033,25.987 52.481,25.987Z" style="fill:rgb(131,56,236);fill-rule:nonzero;stroke:rgb(131,56,236);stroke-width:0.15px;stroke-linejoin:round;stroke-miterlimit:2;"/>
                </g>
                <g transform="matrix(14.8217,0,0,14.8217,-0.196221,1425.11)">
                    <path d="M46.573,7.896C36.046,-2.631 18.917,-2.631 8.389,7.896C-2.139,18.423 -2.138,35.552 8.389,46.08C13.653,51.344 20.567,53.976 27.481,53.976C34.395,53.976 41.309,51.344 46.573,46.08L47.28,45.373L28.895,26.987L47.28,8.603L46.573,7.896ZM26.067,26.987L44.438,45.358C34.644,54.407 19.314,54.174 9.804,44.665C5.082,39.943 2.482,33.665 2.482,26.987C2.482,20.309 5.082,14.032 9.803,9.31C14.677,4.436 21.079,1.999 27.481,1.999C33.572,1.999 39.663,4.205 44.438,8.617L26.067,26.987Z" style="fill:rgb(131,56,236);fill-rule:nonzero;stroke:rgb(131,56,236);stroke-width:0.15px;stroke-linejoin:round;stroke-miterlimit:2;"/>
                </g>
                <g transform="matrix(14.8217,0,0,14.8217,-0.446337,1424.91)">
                    <path d="M24.481,8.987C22.275,8.987 20.481,10.781 20.481,12.987C20.481,15.193 22.275,16.987 24.481,16.987C26.687,16.987 28.481,15.193 28.481,12.987C28.481,10.781 26.687,8.987 24.481,8.987ZM24.481,14.987C23.378,14.987 22.481,14.09 22.481,12.987C22.481,11.884 23.378,10.987 24.481,10.987C25.584,10.987 26.481,11.884 26.481,12.987C26.481,14.09 25.584,14.987 24.481,14.987Z" style="fill:rgb(131,56,236);fill-rule:nonzero;stroke:rgb(131,56,236);stroke-width:0.15px;stroke-linejoin:round;stroke-miterlimit:2;"/>
                </g>
            </g>
            <g transform="matrix(1.02564,0,0,0.78637,448.514,661.035)">
                <path d="M50.3,87.7C49.2,87.7 48.1,87.4 47.2,86.7L37.1,79.7C36.3,79.2 35.3,79.1 34.5,79.6L25.7,84.8C24,85.8 22,85.8 20.2,84.8C18.5,83.8 17.5,82.1 17.5,80.1L17.5,43.9C17.5,26 32.1,11.4 50,11.4C67.9,11.4 82.5,26 82.5,43.9L82.5,80.3C82.5,82.3 81.5,84 79.8,85C78.1,86 76.1,86 74.4,85L65.5,79.8C64.7,79.3 63.6,79.4 62.8,79.9L53.5,86.7C52.5,87.4 51.4,87.7 50.3,87.7ZM35.7,76.4C36.8,76.4 37.9,76.7 38.8,77.4L48.9,84.4C49.8,85 50.9,85 51.7,84.4L61,77.6C62.7,76.3 65.1,76.2 67,77.3L75.9,82.5C76.7,82.9 77.6,82.9 78.3,82.5C79.1,82.1 79.5,81.3 79.5,80.4L79.5,43.9C79.5,27.6 66.3,14.4 50,14.4C33.7,14.4 20.5,27.6 20.5,43.9L20.5,80.3C20.5,81.2 21,82 21.7,82.4C22.5,82.8 23.4,82.8 24.1,82.4L32.9,77.2C33.8,76.6 34.7,76.4 35.7,76.4ZM35.9,54.1C31,54.1 27.1,50.1 27.1,45.3C27.1,40.4 31.1,36.5 35.9,36.5C40.7,36.5 44.7,40.5 44.7,45.3C44.7,50.1 40.7,54.1 35.9,54.1ZM35.9,39.5C32.7,39.5 30.1,42.1 30.1,45.3C30.1,48.5 32.7,51.1 35.9,51.1C39.1,51.1 41.7,48.5 41.7,45.3C41.7,42.1 39.1,39.5 35.9,39.5ZM64.3,54.1C59.4,54.1 55.5,50.1 55.5,45.3C55.5,40.4 59.5,36.5 64.3,36.5C69.1,36.5 73.1,40.5 73.1,45.3C73.1,50.1 69.2,54.1 64.3,54.1ZM64.3,39.5C61.1,39.5 58.5,42.1 58.5,45.3C58.5,48.5 61.1,51.1 64.3,51.1C67.5,51.1 70.1,48.5 70.1,45.3C70.1,42.1 67.5,39.5 64.3,39.5ZM32.4,30.6C32.5,30.5 38.2,23.4 46.2,22.9C47,22.9 47.7,22.1 47.6,21.3C47.6,20.5 46.9,19.9 46,19.9C36.7,20.4 30.3,28.4 30,28.7C29.5,29.3 29.6,30.3 30.2,30.8C30.5,31 30.8,31.1 31.1,31.1C31.7,31.1 32.1,30.9 32.4,30.6Z" style="fill:rgb(131,56,236);fill-rule:nonzero;stroke:rgb(251,111,146);stroke-width:1.11px;"/>
            </g>
            <g transform="matrix(1.02564,0,0,0.78637,568.514,661.035)">
                <path d="M50.3,87.7C49.2,87.7 48.1,87.4 47.2,86.7L37.1,79.7C36.3,79.2 35.3,79.1 34.5,79.6L25.7,84.8C24,85.8 22,85.8 20.2,84.8C18.5,83.8 17.5,82.1 17.5,80.1L17.5,43.9C17.5,26 32.1,11.4 50,11.4C67.9,11.4 82.5,26 82.5,43.9L82.5,80.3C82.5,82.3 81.5,84 79.8,85C78.1,86 76.1,86 74.4,85L65.5,79.8C64.7,79.3 63.6,79.4 62.8,79.9L53.5,86.7C52.5,87.4 51.4,87.7 50.3,87.7ZM35.7,76.4C36.8,76.4 37.9,76.7 38.8,77.4L48.9,84.4C49.8,85 50.9,85 51.7,84.4L61,77.6C62.7,76.3 65.1,76.2 67,77.3L75.9,82.5C76.7,82.9 77.6,82.9 78.3,82.5C79.1,82.1 79.5,81.3 79.5,80.4L79.5,43.9C79.5,27.6 66.3,14.4 50,14.4C33.7,14.4 20.5,27.6 20.5,43.9L20.5,80.3C20.5,81.2 21,82 21.7,82.4C22.5,82.8 23.4,82.8 24.1,82.4L32.9,77.2C33.8,76.6 34.7,76.4 35.7,76.4ZM35.9,54.1C31,54.1 27.1,50.1 27.1,45.3C27.1,40.4 31.1,36.5 35.9,36.5C40.7,36.5 44.7,40.5 44.7,45.3C44.7,50.1 40.7,54.1 35.9,54.1ZM35.9,39.5C32.7,39.5 30.1,42.1 30.1,45.3C30.1,48.5 32.7,51.1 35.9,51.1C39.1,51.1 41.7,48.5 41.7,45.3C41.7,42.1 39.1,39.5 35.9,39.5ZM64.3,54.1C59.4,54.1 55.5,50.1 55.5,45.3C55.5,40.4 59.5,36.5 64.3,36.5C69.1,36.5 73.1,40.5 73.1,45.3C73.1,50.1 69.2,54.1 64.3,54.1ZM64.3,39.5C61.1,39.5 58.5,42.1 58.5,45.3C58.5,48.5 61.1,51.1 64.3,51.1C67.5,51.1 70.1,48.5 70.1,45.3C70.1,42.1 67.5,39.5 64.3,39.5ZM32.4,30.6C32.5,30.5 38.2,23.4 46.2,22.9C47,22.9 47.7,22.1 47.6,21.3C47.6,20.5 46.9,19.9 46,19.9C36.7,20.4 30.3,28.4 30,28.7C29.5,29.3 29.6,30.3 30.2,30.8C30.5,31 30.8,31.1 31.1,31.1C31.7,31.1 32.1,30.9 32.4,30.6Z" style="fill:rgb(131,56,236);fill-rule:nonzero;stroke:rgb(251,111,146);stroke-width:1.11px;"/>
            </g>
        </g>
        <g transform="matrix(1.33333,0,0,1,193.252,239.065)">
            <g transform="matrix(600,0,0,600,292.549,209.935)">
            </g>
            <text x="112.549px" y="209.935px" style="font-family:'Combackhome-Regular', 'Comback home';font-size:600px;fill:rgb(131,56,236);">T</text>
        </g>
        <g transform="matrix(1.33333,0,0,1,439.913,579.065)">
            <g transform="matrix(600,0,0,600,420.349,209.935)">
            </g>
            <text x="112.549px" y="209.935px" style="font-family:'Combackhome-Regular', 'Comback home';font-size:600px;fill:rgb(131,56,236);">S</text>
        </g>
        <g transform="matrix(1.11401,0,0,0.866904,-623.961,-226.904)">
            <text x="1400px" y="1000px" style="font-family:'PressStart2P-Regular', 'Press Start 2P';font-size:86.13px;fill:rgb(251,111,146);">tore</text>
            <g transform="matrix(86.1303,0,0,86.1303,1830.65,1000)">
            </g>
            <text x="1744.52px" y="1000px" style="font-family:'PressStart2P-Regular', 'Press Start 2P';font-size:86.13px;fill:rgb(131,56,236);">_</text>
        </g>
        <g transform="matrix(1.28571,0,0,1.28571,-291.411,-55.2857)">
            <g transform="matrix(-1.66667,0,0,1.27273,1113.33,-0.272827)">
                <g transform="matrix(1.53226,0,0,1.56086,82.0808,109.853)">
                    <path d="M44.224,19.235C44.978,15.488 45.288,11.743 44.584,8.02C41.921,10.698 39.258,12.793 36.569,14.145M33.132,11.429C29.782,9.982 25.7,9.817 21.785,10.438M19.47,21.252C17.826,16.877 17.382,12.395 18.295,7.782C21.167,10.378 24.371,12.581 27.824,14.332M13.028,13.522C10.376,15.419 7.541,18.534 5.821,21.709C8.483,21.391 11.206,21.418 13.581,22.213C8.878,25.703 6.461,30.928 6.036,36.732C10.082,33.815 13.064,32.596 16.736,32.002C13.969,33.54 12.89,38.484 12.864,43.019C16.921,40.002 20.651,39.349 23.969,39.591C26.125,40.911 28.874,41.632 31.326,41.768C34.392,41.938 36.913,41.275 38.784,40.348M32.711,36.123C31.423,36.361 29.705,37.02 27.932,36.385C23.374,34.755 22.203,28.187 24.185,24.157C24.538,23.467 25.271,22.915 26.385,23.163C28.828,23.633 32.512,26.228 34.092,29.933C34.522,30.943 35.518,32.01 36.339,32.01C37.316,32.01 38.234,31.176 38.603,29.981C40.01,25.425 41.755,23.917 43.083,23.467C43.792,23.227 44.25,23.495 44.441,24.267C44.647,25.046 44.757,26.138 44.744,27.355C44.711,30.627 43.064,36.245 39.824,36.362C38.953,36.344 38.224,35.909 36.629,35.807C35.691,35.747 34.454,35.801 32.711,36.123Z" style="fill:none;fill-rule:nonzero;stroke:rgb(131,56,236);stroke-width:1.54px;stroke-linecap:round;stroke-linejoin:round;stroke-miterlimit:4;"/>
                </g>
                <g transform="matrix(1.53226,0,0,1.56086,82.0708,109.813)">
                    <path d="M29.196,29.398C28.325,29.398 27.608,30.115 27.608,30.986C27.609,31.856 28.326,32.572 29.196,32.572C30.066,32.571 30.781,31.856 30.782,30.986C30.782,30.116 30.066,29.399 29.196,29.398Z" style="fill-rule:nonzero;stroke:rgb(131,56,236);stroke-width:1.2px;stroke-linejoin:round;stroke-miterlimit:2;"/>
                </g>
            </g>
            <g transform="matrix(1.33333,0,0,1,-168.331,-0.5)">
                <g transform="matrix(1,0,0,1,-5,-40)">
                    <path d="M865,235L1000,235" style="fill:none;stroke:rgb(131,56,236);stroke-width:2.33px;stroke-linecap:round;stroke-linejoin:round;stroke-miterlimit:1.5;"/>
                    <path d="M1020,235L1060,235" style="fill:none;stroke:rgb(131,56,236);stroke-width:2.33px;stroke-linecap:round;stroke-linejoin:round;stroke-miterlimit:1.5;"/>
                    <path d="M1080,235L1105,235" style="fill:none;stroke:rgb(131,56,236);stroke-width:2.33px;stroke-linecap:round;stroke-linejoin:round;stroke-miterlimit:1.5;"/>
                </g>
                <g transform="matrix(1,0,0,1,0,-24)">
                    <path d="M880,200L940,200" style="fill:none;stroke:rgb(131,56,236);stroke-width:2.33px;stroke-linecap:round;stroke-linejoin:round;stroke-miterlimit:1.5;"/>
                    <g transform="matrix(1,0,0,1,-10,0)">
                        <path d="M970,200L995,200" style="fill:none;stroke:rgb(131,56,236);stroke-width:2.33px;stroke-linecap:round;stroke-linejoin:round;stroke-miterlimit:1.5;"/>
                    </g>
                    <g transform="matrix(1,0,0,1,-2.5,0)">
                        <path d="M1010,200L1035,200" style="fill:none;stroke:rgb(131,56,236);stroke-width:2.33px;stroke-linecap:round;stroke-linejoin:round;stroke-miterlimit:1.5;"/>
                    </g>
                </g>
            </g>
        </g>
    </g>
</svg>
