<?xml version="1.0" encoding="UTF-8" standalone="no"?>
<!DOCTYPE svg PUBLIC "-//W3C//DTD SVG 1.1//EN" "http://www.w3.org/Graphics/SVG/1.1/DTD/svg11.dtd">
<svg width="100%" height="100%" viewBox="0 0 800 800" version="1.1" xmlns="http://www.w3.org/2000/svg" xmlns:xlink="http://www.w3.org/1999/xlink" xml:space="preserve" xmlns:serif="http://www.serif.com/" style="fill-rule:evenodd;clip-rule:evenodd;stroke-linejoin:round;stroke-miterlimit:2;">
    <g transform="matrix(1.5625,0,0,1.5625,0,0)">
        <path d="M198.742,439.886C193.044,436.032 186.106,433.758 178.73,433.767C173.809,433.767 169.072,434.767 164.788,436.587C158.354,439.308 152.913,443.831 149.051,449.545C145.19,455.243 142.924,462.181 142.94,469.557C142.932,474.469 143.932,479.208 145.752,483.491C148.48,489.933 152.995,495.375 158.702,499.228C164.408,503.099 171.354,505.356 178.73,505.356C183.642,505.356 188.372,504.355 192.656,502.536C199.098,499.816 204.539,495.283 208.402,489.578C212.256,483.88 214.522,476.934 214.522,469.557C214.522,464.645 213.513,459.915 211.702,455.623C208.972,449.182 204.448,443.74 198.742,439.886ZM192.027,475.173C190.936,477.753 189.091,479.977 186.785,481.532C184.469,483.087 181.757,483.988 178.73,483.996C176.704,483.988 174.827,483.591 173.115,482.854C170.543,481.78 168.31,479.927 166.756,477.628C165.201,475.304 164.3,472.584 164.292,469.556C164.3,467.538 164.705,465.669 165.425,463.941C166.508,461.369 168.361,459.145 170.667,457.582C172.983,456.027 175.704,455.134 178.73,455.126C180.748,455.126 182.617,455.532 184.337,456.259C186.917,457.342 189.133,459.187 190.688,461.503C192.251,463.818 193.152,466.531 193.152,469.557C193.152,471.584 192.747,473.453 192.027,475.173Z" style="fill:rgb(251,111,146);fill-rule:nonzero;stroke:rgb(251,111,146);stroke-width:0.64px;"/>
        <path d="M168.724,392.842C164.853,392.842 161.231,392.064 157.907,390.666C152.937,388.566 148.662,385.026 145.668,380.577C142.791,376.302 141.087,371.266 140.955,365.742C141.103,359.15 143.204,353.428 146.892,348.855C148.802,346.499 151.159,344.431 154.02,342.719C156.848,341.032 160.181,339.692 164.093,338.849L408.425,299.081C424.385,296.476 437.087,284.271 440.312,268.417L470.198,121.492L470.198,121.476C470.545,119.772 470.711,118.036 470.711,116.316C470.711,110.378 468.676,104.574 464.856,99.892C459.927,93.872 452.55,90.374 444.769,90.374L106.454,90.374L94.926,50.772L94.926,50.78C89.634,33.075 75.112,19.662 57.052,15.792L15.688,6.935C8.691,5.43 1.795,9.895 0.289,16.9C-1.207,23.904 3.249,30.801 10.263,32.298L51.611,41.163C60.409,43.048 67.489,49.581 70.069,58.215L145.652,317.845C143.949,318.639 142.303,319.499 140.715,320.449C132.569,325.304 126.037,332.118 121.654,340.073C117.461,347.631 115.236,356.199 115.022,365.039L114.989,365.039L114.989,366.387L115.022,366.387C115.187,373.293 116.659,379.916 119.214,385.961C123.308,395.628 130.105,403.807 138.672,409.595C147.232,415.391 157.643,418.79 168.724,418.782L305.994,418.782C305.952,417.501 305.8,416.252 305.8,414.962C305.8,407.395 306.581,400.01 307.975,392.841L168.724,392.841L168.724,392.842ZM113.996,116.316L444.777,116.316L414.891,263.249C413.815,268.541 409.581,272.611 404.256,273.471L170.807,311.478L113.996,116.316Z" style="fill:rgb(251,111,150);fill-rule:nonzero;stroke:rgb(251,111,150);stroke-width:0.64px;"/>
        <path d="M421.598,324.56C371.666,324.56 331.212,365.031 331.212,414.963C331.212,464.886 371.667,505.357 421.598,505.357C471.529,505.357 512,464.886 512,414.963C512,365.031 471.529,324.56 421.598,324.56ZM473.25,430.03L369.946,430.03L369.946,399.887L473.25,399.887L473.25,430.03Z" style="fill:rgb(251,111,146);fill-rule:nonzero;stroke:rgb(251,111,146);stroke-width:0.64px;"/>
    </g>
</svg>
