<?xml version="1.0" encoding="UTF-8" standalone="no"?>
<!DOCTYPE svg PUBLIC "-//W3C//DTD SVG 1.1//EN" "http://www.w3.org/Graphics/SVG/1.1/DTD/svg11.dtd">
<svg width="100%" height="100%" viewBox="0 0 800 800" version="1.1" xmlns="http://www.w3.org/2000/svg" xmlns:xlink="http://www.w3.org/1999/xlink" xml:space="preserve" xmlns:serif="http://www.serif.com/" style="fill-rule:evenodd;clip-rule:evenodd;stroke-linejoin:round;stroke-miterlimit:2;">
    <g transform="matrix(4.87805,0,0,4.87805,14.6341,0)">
        <g>
            <clipPath id="_clip1">
                <rect x="0.314" y="0.74" width="157.521" height="162.772"/>
            </clipPath>
            <g clip-path="url(#_clip1)">
                <path d="M123.953,54.151C132.152,56.842 138.958,57.868 145.383,57.388C153.467,56.782 157.753,52.154 157.78,44.006C157.791,40.308 157.616,36.556 157.447,32.928C157.398,31.904 157.352,30.881 157.308,29.858C157.312,28.696 156.928,27.565 156.218,26.645C155.507,25.724 154.509,25.068 153.383,24.778C151.854,24.319 150.299,23.946 148.728,23.662C132.049,20.646 119.212,14.2 109.482,3.954C107.83,2.247 105.601,1.217 103.23,1.066L103.16,1.066C98.143,1.132 93.065,1.665 88.154,2.182L85.66,2.439C82.8,2.732 81.078,4.605 80.938,7.579C80.873,8.948 80.845,9.997 80.846,10.977C80.849,17.883 80.858,24.789 80.873,31.695C80.903,48.088 80.934,65.04 80.833,81.708C80.785,89.534 80.369,97.424 79.592,105.157C79.42,107.13 78.851,109.048 77.92,110.796C76.99,112.544 75.715,114.086 74.175,115.33C72.498,116.63 70.577,117.578 68.526,118.119C66.475,118.66 64.335,118.782 62.236,118.477C53.81,117.413 49.211,112.408 47.761,102.725C46.955,97.353 48.023,92.504 50.856,88.702C53.64,84.961 57.875,82.588 63.1,81.839C67.971,81.142 69.458,79.245 68.992,74.321C68.595,70.126 67.958,65.891 67.342,61.797C66.941,59.13 66.526,56.371 66.182,53.658C65.833,50.895 64.156,49.254 61.198,48.782C59.358,48.497 57.487,48.478 55.642,48.727C33.215,51.751 16.721,63.378 6.619,83.286C-0.667,97.637 -1.541,114.11 4.211,128.482C9.796,142.439 20.99,152.996 35.731,158.208C44.792,161.472 54.347,163.155 63.979,163.183C74.297,163.183 84.748,161.218 95.486,157.289C108.174,152.644 115.621,143.16 117.616,129.102C120.399,109.497 120.84,93.018 119.003,77.241C118.338,71.524 118.101,65.766 117.851,59.67C117.748,57.155 117.641,54.563 117.502,51.91C118.217,52.16 118.875,52.393 119.492,52.61C121.207,53.216 122.561,53.695 123.953,54.151ZM106.363,59.346C106.486,70.822 106.614,82.69 106.464,94.355L106.455,95.017C106.324,105.565 106.183,116.472 104.158,127.068C102.305,136.77 97.297,142.877 88.847,145.737C70.969,151.786 54.534,151.827 38.6,145.859C16.369,137.531 9.668,117.031 12.888,100.408C17.115,78.589 29.427,64.691 49.483,59.099C51.583,58.514 54.077,57.829 56.613,57.187C57.219,57.051 57.833,56.95 58.451,56.883C58.702,56.849 58.976,56.813 59.279,56.771L60.171,72.907C59.937,73.025 59.718,73.142 59.51,73.251C59.05,73.529 58.556,73.744 58.039,73.893C43.775,76.995 35.605,90.589 38.172,106.95C38.898,111.686 40.877,116.144 43.904,119.859C46.931,123.575 50.895,126.415 55.387,128.084C60.084,129.881 65.171,130.411 70.137,129.618C75.103,128.825 79.773,126.738 83.676,123.567C89.218,119.031 91.918,113.367 91.483,107.188C90.983,100.061 91.312,92.834 91.632,85.846C91.834,81.405 92.044,76.814 92.04,72.284C92.029,60.636 91.983,48.794 91.939,37.342C91.917,31.934 91.897,26.528 91.879,21.121C91.872,19.152 91.874,17.183 91.879,15.162L91.879,12.717C94.454,11.743 96.982,11.912 99.432,12.077C100.351,12.139 101.295,12.202 102.223,12.202L102.238,12.202L102.975,12.933C112.699,22.581 114.765,24.629 145.992,34.92L145.545,43.622C145.348,43.72 145.169,43.819 145,43.912C144.735,44.082 144.444,44.206 144.138,44.281C134.874,43.588 124.193,42.394 114.669,36.969C113.321,36.275 111.898,35.737 110.429,35.365C109.621,35.124 108.784,34.874 107.87,34.56C107.775,34.527 107.675,34.516 107.575,34.527C107.476,34.538 107.38,34.571 107.295,34.623C107.21,34.676 107.138,34.747 107.083,34.831C107.029,34.915 106.994,35.01 106.982,35.109C106.862,36.011 106.734,36.8 106.617,37.516C106.381,38.728 106.245,39.957 106.213,41.191C106.231,47.243 106.297,53.396 106.361,59.346L106.363,59.346Z" style="fill:rgb(251,111,146);fill-rule:nonzero;stroke:rgb(251,111,146);stroke-width:0.21px;"/>
            </g>
        </g>
    </g>
</svg>
